<?xml version="1.0" encoding="utf-8"?><svg xmlns="http://www.w3.org/2000/svg" xmlns:xlink="http://www.w3.org/1999/xlink"><symbol viewBox="0 0 14 16" id="icon-code"><path fill-rule="evenodd" d="M9.5 3L8 4.5 11.5 8 8 11.5 9.5 13 14 8 9.5 3zm-5 0L0 8l4.5 5L6 11.5 2.5 8 6 4.5 4.5 3z"/></symbol><symbol viewBox="0 0 12 16" id="icon-gist"><path fill-rule="evenodd" d="M7.5 5L10 7.5 7.5 10l-.75-.75L8.5 7.5 6.75 5.75 7.5 5zm-3 0L2 7.5 4.5 10l.75-.75L3.5 7.5l1.75-1.75L4.5 5zM0 13V2c0-.55.45-1 1-1h10c.55 0 1 .45 1 1v11c0 .55-.45 1-1 1H1c-.55 0-1-.45-1-1zm1 0h10V2H1v11z"/></symbol><symbol viewBox="0 0 14 16" id="icon-git-commit"><path fill-rule="evenodd" d="M10.86 7c-.45-1.72-2-3-3.86-3-1.86 0-3.41 1.28-3.86 3H0v2h3.14c.45 1.72 2 3 3.86 3 1.86 0 3.41-1.28 3.86-3H14V7h-3.14zM7 10.2c-1.22 0-2.2-.98-2.2-2.2 0-1.22.98-2.2 2.2-2.2 1.22 0 2.2.98 2.2 2.2 0 1.22-.98 2.2-2.2 2.2z"/></symbol><symbol viewBox="0 0 14 16" id="icon-info"><path fill-rule="evenodd" d="M6.3 5.69a.942.942 0 0 1-.28-.7c0-.28.09-.52.28-.7.19-.18.42-.28.7-.28.28 0 .52.09.7.28.18.19.28.42.28.7 0 .28-.09.52-.28.7a1 1 0 0 1-.7.3c-.28 0-.52-.11-.7-.3zM8 7.99c-.02-.25-.11-.48-.31-.69-.2-.19-.42-.3-.69-.31H6c-.27.02-.48.13-.69.31-.2.2-.3.44-.31.69h1v3c.02.27.11.5.31.69.2.2.42.31.69.31h1c.27 0 .48-.11.69-.31.2-.19.3-.42.31-.69H8V7.98v.01zM7 2.3c-3.14 0-5.7 2.54-5.7 5.68 0 3.14 2.56 5.7 5.7 5.7s5.7-2.55 5.7-5.7c0-3.15-2.56-5.69-5.7-5.69v.01zM7 .98c3.86 0 7 3.14 7 7s-3.14 7-7 7-7-3.12-7-7 3.14-7 7-7z"/></symbol><symbol viewBox="0 0 10 16" id="icon-repo-forked"><path fill-rule="evenodd" d="M8 1a1.993 1.993 0 0 0-1 3.72V6L5 8 3 6V4.72A1.993 1.993 0 0 0 2 1a1.993 1.993 0 0 0-1 3.72V6.5l3 3v1.78A1.993 1.993 0 0 0 5 15a1.993 1.993 0 0 0 1-3.72V9.5l3-3V4.72A1.993 1.993 0 0 0 8 1zM2 4.2C1.34 4.2.8 3.65.8 3c0-.65.55-1.2 1.2-1.2.65 0 1.2.55 1.2 1.2 0 .65-.55 1.2-1.2 1.2zm3 10c-.66 0-1.2-.55-1.2-1.2 0-.65.55-1.2 1.2-1.2.65 0 1.2.55 1.2 1.2 0 .65-.55 1.2-1.2 1.2zm3-10c-.66 0-1.2-.55-1.2-1.2 0-.65.55-1.2 1.2-1.2.65 0 1.2.55 1.2 1.2 0 .65-.55 1.2-1.2 1.2z"/></symbol><symbol viewBox="0 0 16 16" id="icon-repo-pull"><path fill-rule="evenodd" d="M13 8V6H7V4h6V2l3 3-3 3zM4 2H3v1h1V2zm7 5h1v6c0 .55-.45 1-1 1H6v2l-1.5-1.5L3 16v-2H1c-.55 0-1-.45-1-1V1c0-.55.45-1 1-1h10c.55 0 1 .45 1 1v2h-1V1H2v9h9V7zm0 4H1v2h2v-1h3v1h5v-2zM4 6H3v1h1V6zm0-2H3v1h1V4zM3 9h1V8H3v1z"/></symbol><symbol viewBox="0 0 120 120" id="icon-stack-overflow"><style>.gst0{fill:#bcbbbb}.gst1{fill:#f48023}</style><path class="gst0" d="M84.4 93.8V70.6h7.7v30.9H22.6V70.6h7.7v23.2z"/><path class="gst1" d="M38.8 68.4l37.8 7.9 1.6-7.6-37.8-7.9-1.6 7.6zm5-18l35 16.3 3.2-7-35-16.4-3.2 7.1zm9.7-17.2l29.7 24.7 4.9-5.9-29.7-24.7-4.9 5.9zm19.2-18.3l-6.2 4.6 23 31 6.2-4.6-23-31zM38 86h38.6v-7.7H38V86z"/></symbol><symbol viewBox="0 0 12 16" id="icon-trashcan"><path fill-rule="evenodd" d="M11 2H9c0-.55-.45-1-1-1H5c-.55 0-1 .45-1 1H2c-.55 0-1 .45-1 1v1c0 .55.45 1 1 1v9c0 .55.45 1 1 1h7c.55 0 1-.45 1-1V5c.55 0 1-.45 1-1V3c0-.55-.45-1-1-1zm-1 12H3V5h1v8h1V5h1v8h1V5h1v8h1V5h1v9zm1-10H2V3h9v1z"/></symbol></svg>